<mxfile host="65bd71144e">
    <diagram id="jCEFR7Ir0iMpcgvGXgsi" name="Page-1">
        <mxGraphModel dx="738" dy="379" grid="1" gridSize="10" guides="1" tooltips="1" connect="1" arrows="1" fold="1" page="1" pageScale="1" pageWidth="850" pageHeight="1100" background="#ffffff" math="0" shadow="0">
            <root>
                <mxCell id="0"/>
                <mxCell id="1" parent="0"/>
                <mxCell id="13" value="" style="edgeStyle=none;html=1;fontFamily=Helvetica;fontSize=25;fontColor=#000000;fillColor=#d0cee2;strokeColor=#000000;" edge="1" parent="1" source="14" target="16">
                    <mxGeometry relative="1" as="geometry"/>
                </mxCell>
                <mxCell id="14" value="Start" style="ellipse;whiteSpace=wrap;html=1;fillColor=#F8CECC;fontFamily=Helvetica;fontColor=#000000;fontSize=25;" vertex="1" parent="1">
                    <mxGeometry x="60" y="20" width="140" height="80" as="geometry"/>
                </mxCell>
                <mxCell id="15" style="edgeStyle=none;html=1;entryX=0.5;entryY=0;entryDx=0;entryDy=0;strokeColor=#000000;" edge="1" parent="1" source="16" target="25">
                    <mxGeometry relative="1" as="geometry"/>
                </mxCell>
                <mxCell id="16" value="&lt;font style=&quot;font-size: 20px&quot; color=&quot;#000000&quot;&gt;Read Item&lt;br&gt;Code&lt;/font&gt;" style="shape=parallelogram;perimeter=parallelogramPerimeter;whiteSpace=wrap;html=1;fixedSize=1;fontSize=25;fillColor=#dae8fc;strokeColor=#6c8ebf;" vertex="1" parent="1">
                    <mxGeometry x="52.5" y="150" width="155" height="80" as="geometry"/>
                </mxCell>
                <mxCell id="17" value="" style="edgeStyle=none;html=1;fontSize=20;fontColor=#000000;strokeColor=#000000;" edge="1" parent="1" source="19" target="21">
                    <mxGeometry relative="1" as="geometry"/>
                </mxCell>
                <mxCell id="18" style="edgeStyle=none;html=1;entryX=0.5;entryY=0;entryDx=0;entryDy=0;strokeColor=#000000;" edge="1" parent="1" source="19" target="32">
                    <mxGeometry relative="1" as="geometry"/>
                </mxCell>
                <mxCell id="19" value="&lt;font style=&quot;font-size: 20px&quot;&gt;Item Code is available&lt;/font&gt;" style="rhombus;whiteSpace=wrap;html=1;fontSize=25;fillColor=#D5E8D4;strokeColor=#82b366;fontColor=#000000;" vertex="1" parent="1">
                    <mxGeometry x="48.75" y="410" width="162.5" height="150" as="geometry"/>
                </mxCell>
                <mxCell id="20" style="edgeStyle=none;html=1;entryX=1;entryY=0.75;entryDx=0;entryDy=0;fontSize=20;fontColor=#FFFFFF;strokeColor=#000000;" edge="1" parent="1" source="21" target="16">
                    <mxGeometry relative="1" as="geometry">
                        <Array as="points">
                            <mxPoint x="380" y="206"/>
                        </Array>
                    </mxGeometry>
                </mxCell>
                <mxCell id="21" value="&lt;font style=&quot;font-size: 20px&quot;&gt;Print &quot;Item not found&quot;&lt;/font&gt;" style="whiteSpace=wrap;html=1;fontSize=25;fillColor=#FFDC8C;fontColor=#000000;" vertex="1" parent="1">
                    <mxGeometry x="300" y="447.5" width="160" height="75" as="geometry"/>
                </mxCell>
                <mxCell id="22" value="&lt;font&gt;No&lt;/font&gt;" style="text;html=1;align=center;verticalAlign=middle;resizable=0;points=[];autosize=1;strokeColor=none;fillColor=none;fontSize=20;fontColor=#000000;" vertex="1" parent="1">
                    <mxGeometry x="240" y="447.5" width="40" height="30" as="geometry"/>
                </mxCell>
                <mxCell id="23" value="&lt;font&gt;Yes&lt;/font&gt;" style="text;html=1;align=center;verticalAlign=middle;resizable=0;points=[];autosize=1;strokeColor=none;fillColor=none;fontSize=20;fontColor=#000000;" vertex="1" parent="1">
                    <mxGeometry x="130" y="582.5" width="50" height="30" as="geometry"/>
                </mxCell>
                <mxCell id="24" style="edgeStyle=none;html=1;entryX=0.5;entryY=0;entryDx=0;entryDy=0;strokeColor=#000000;" edge="1" parent="1" source="25" target="19">
                    <mxGeometry relative="1" as="geometry"/>
                </mxCell>
                <mxCell id="25" value="&lt;font style=&quot;font-size: 20px&quot;&gt;Check Item Database&lt;/font&gt;" style="whiteSpace=wrap;html=1;fontSize=25;fillColor=#FFDC8C;fontColor=#000000;" vertex="1" parent="1">
                    <mxGeometry x="66.25" y="290" width="127.5" height="60" as="geometry"/>
                </mxCell>
                <mxCell id="26" style="edgeStyle=none;html=1;entryX=0.5;entryY=0;entryDx=0;entryDy=0;strokeColor=#000000;" edge="1" parent="1" source="27" target="29">
                    <mxGeometry relative="1" as="geometry"/>
                </mxCell>
                <mxCell id="27" value="&lt;font style=&quot;font-size: 20px&quot;&gt;Calculate Total Price as Total Price + Item Price&amp;nbsp;&lt;/font&gt;" style="whiteSpace=wrap;html=1;fontSize=25;fillColor=#FFDC8C;fontColor=#000000;" vertex="1" parent="1">
                    <mxGeometry x="15" y="780" width="230" height="97.5" as="geometry"/>
                </mxCell>
                <mxCell id="28" style="edgeStyle=none;html=1;entryX=0.5;entryY=0;entryDx=0;entryDy=0;fontSize=30;fontColor=#000000;strokeColor=#000000;" edge="1" parent="1" source="29" target="30">
                    <mxGeometry relative="1" as="geometry"/>
                </mxCell>
                <mxCell id="29" value="&lt;span style=&quot;font-size: 20px&quot;&gt;Print Total Price&lt;/span&gt;" style="whiteSpace=wrap;html=1;fontSize=25;fillColor=#FFDC8C;fontColor=#000000;" vertex="1" parent="1">
                    <mxGeometry x="25" y="930" width="210" height="85" as="geometry"/>
                </mxCell>
                <mxCell id="30" value="End" style="ellipse;whiteSpace=wrap;html=1;fillColor=#F8CECC;fontFamily=Helvetica;fontColor=#000000;fontSize=25;" vertex="1" parent="1">
                    <mxGeometry x="60" y="1070" width="140" height="80" as="geometry"/>
                </mxCell>
                <mxCell id="31" style="edgeStyle=none;html=1;entryX=0.5;entryY=0;entryDx=0;entryDy=0;fontSize=30;fontColor=#000000;strokeColor=#000000;" edge="1" parent="1" source="32" target="27">
                    <mxGeometry relative="1" as="geometry"/>
                </mxCell>
                <mxCell id="32" value="&lt;font style=&quot;font-size: 20px&quot;&gt;Print Item Name and Item Price&lt;/font&gt;" style="whiteSpace=wrap;html=1;fontSize=25;fillColor=#FFDC8C;fontColor=#000000;" vertex="1" parent="1">
                    <mxGeometry x="35" y="630" width="190" height="97.5" as="geometry"/>
                </mxCell>
            </root>
        </mxGraphModel>
    </diagram>
</mxfile>